<?xml version="1.0" encoding="UTF-8" standalone="no"?>
<!-- Created with Inkscape (http://www.inkscape.org/) -->

<svg
   version="1.1"
   id="svg2"
   xml:space="preserve"
   width="682.66669"
   height="682.66669"
   viewBox="0 0 682.66669 682.66669"
   sodipodi:docname="bm framed.ai"
   xmlns:inkscape="http://www.inkscape.org/namespaces/inkscape"
   xmlns:sodipodi="http://sodipodi.sourceforge.net/DTD/sodipodi-0.dtd"
   xmlns="http://www.w3.org/2000/svg"
   xmlns:svg="http://www.w3.org/2000/svg"><defs
     id="defs6"><clipPath
       clipPathUnits="userSpaceOnUse"
       id="clipPath16"><path
         d="M 0,512 H 512 V 0 H 0 Z"
         id="path14" /></clipPath></defs><sodipodi:namedview
     id="namedview4"
     pagecolor="#ffffff"
     bordercolor="#666666"
     borderopacity="1.0"
     inkscape:pageshadow="2"
     inkscape:pageopacity="0.0"
     inkscape:pagecheckerboard="0" /><g
     id="g8"
     inkscape:groupmode="layer"
     inkscape:label="bm framed"
     transform="matrix(1.3333333,0,0,-1.3333333,0,682.66667)"><g
       id="g10"><g
         id="g12"
         clip-path="url(#clipPath16)"><g
           id="g18"
           transform="translate(264.5889,99.8242)"><path
             d="M 0,0 H -110.282 V 130.702 H -3.455 c 35.721,0 62.573,-5.091 80.55,-15.268 C 95.071,105.251 104.06,88.865 104.06,66.268 104.06,22.088 69.37,0 0,0 m -110.282,311.488 h 83.317 c 37.337,0 65.109,-3.717 83.317,-11.146 18.203,-7.435 27.311,-22.446 27.311,-45.044 0,-10.588 -2.885,-20.156 -8.642,-28.706 -7.38,-12.014 -18.038,-20.155 -31.978,-24.43 -13.949,-4.276 -33.708,-6.413 -59.292,-6.413 h -94.033 z M 108.209,168.876 c 50.7,20.765 76.057,53.541 76.057,98.332 0,13.026 -2.42,25.394 -7.262,37.104 -4.838,11.704 -11.871,22.392 -21.086,32.064 -9.223,9.668 -19.827,17.66 -31.806,23.973 -14.062,7.529 -29.964,12.62 -47.71,15.268 -17.749,2.644 -38.719,3.97 -62.919,3.97 H -150.73 c -21.898,0 -37.741,-4.326 -47.535,-12.978 -9.798,-8.656 -14.693,-22.856 -14.693,-42.601 V -12.521 c 0,-19.344 4.78,-33.438 14.347,-42.294 9.561,-8.857 25.524,-13.285 47.881,-13.285 H 4.15 c 26.733,0 50.126,1.168 70.18,3.511 20.051,2.339 37.795,6.361 53.238,12.063 24.659,9.568 44.252,24.379 58.773,44.434 14.518,20.05 21.777,42.599 21.777,67.641 0,54.152 -33.306,90.593 -99.909,109.327"
             style="fill:#b6ae97;fill-opacity:1;fill-rule:nonzero;stroke:none"
             id="path20" /></g><g
           id="g22"
           transform="translate(285.6455,211.207)"><path
             d="m 0,0 -94.148,-22.804 c -12.028,-2.772 -20.96,-4.143 -26.798,-4.123 -5.842,0.026 -10.883,1.597 -15.131,4.727 -6.643,4.891 -9.543,12.012 -8.689,21.369 0.847,9.355 5.166,18.404 12.954,27.15 4.835,5.429 10.794,10.859 17.881,16.282 7.082,5.422 18.304,13.009 33.66,22.76 3.118,2.088 5.889,3.832 8.311,5.233 2.416,1.397 4.435,2.601 6.052,3.605 l 0.054,1.275 c -22.598,-5.733 -45.627,-12.36 -69.087,-19.871 -19.468,-6.066 -34.422,-10.302 -44.856,-12.707 -10.437,-2.407 -19.029,-3.648 -25.77,-3.728 -6.745,-0.083 -11.694,1.043 -14.852,3.369 -7.081,5.213 -9.679,12.721 -7.798,22.523 1.876,9.805 8.009,20.535 18.392,32.192 13.097,14.707 39.504,34.635 79.221,59.795 35.317,22.246 59.966,36.458 73.929,42.628 19.779,8.247 34.514,8.806 44.201,1.671 5.878,-4.327 9.24,-9.601 10.099,-15.821 0.855,-6.224 -1.132,-12.049 -5.966,-17.478 -8.846,-9.932 -25.441,-22.818 -49.779,-38.653 -9.106,-5.789 -19.152,-12.531 -30.137,-20.225 l -0.056,-1.276 c 8.859,2.464 23.649,7.029 44.365,13.702 35.856,11.74 61.42,18.894 76.699,21.459 20.269,3.927 34.599,2.803 42.986,-3.372 3.704,-2.728 5.889,-6.858 6.547,-12.394 0.662,-5.538 -0.269,-11.594 -2.799,-18.18 C 76.962,102.521 73.22,96.447 68.265,90.882 63.188,85.182 46.84,73.081 19.216,54.575 13.435,50.708 8.929,47.662 5.69,45.44 2.45,43.214 -0.377,41.348 -2.798,39.839 l 0.108,-1.394 c 3.169,0.733 6.005,1.387 8.501,1.965 2.493,0.58 5.21,1.153 8.156,1.733 2.944,0.577 5.72,1.115 8.325,1.612 6.003,1.284 21.481,4.922 46.442,10.911 17.271,4.84 29.876,7.572 37.828,8.191 7.943,0.619 13.985,-0.59 18.124,-3.64 6.752,-4.971 9.388,-11.575 7.914,-19.812 C 131.121,31.167 125.493,21.55 115.7,10.557 109.68,3.803 99.309,-6.224 84.592,-19.514 68.434,-34.817 55.899,-46.917 46.983,-55.816 c -8.919,-8.901 -15.03,-15.207 -18.332,-18.913 -2.475,-2.784 -5.5,-6.428 -9.06,-10.933 -3.565,-4.506 -7.202,-9.452 -10.912,-14.836 -3.712,-5.382 -7.68,-11.452 -11.899,-18.217 -5.179,-8.247 -9.385,-14.584 -12.605,-19.015 -5.124,-4.125 -11.579,-6.061 -19.373,-5.808 -7.795,0.261 -14.528,2.473 -20.19,6.641 -8.93,6.577 -12.945,17.654 -12.056,33.228 0.523,7.073 1.87,13.594 4.038,19.565 2.165,5.975 5.638,12.409 10.427,19.304 4.787,6.891 11.781,15.509 20.985,25.84 6.018,6.759 19.119,20.253 39.306,40.486 l 0.053,1.28 z"
             style="fill:#72b7b2;fill-opacity:1;fill-rule:nonzero;stroke:none"
             id="path24" /></g><g
           id="g26"
           transform="translate(501.7334,24.582)"><path
             d="m 0,0 c 0,-8.459 -7.765,-15.318 -17.341,-15.318 h -459.57 c -9.579,0 -17.344,6.859 -17.344,15.318 v 460.85 c 0,8.461 7.765,15.319 17.344,15.319 h 459.57 C -7.765,476.169 0,469.311 0,460.85 Z m -8.154,485.418 h -475.631 c -9.912,0 -17.948,-7.098 -17.948,-15.855 V -7.391 c 0,-8.756 8.036,-15.855 17.948,-15.855 H -8.154 c 9.912,0 17.948,7.099 17.948,15.855 v 476.954 c 0,8.757 -8.036,15.855 -17.948,15.855"
             style="fill:#3383c5;fill-opacity:1;fill-rule:nonzero;stroke:none"
             id="path28" /></g></g></g></g></svg>
